<svg width="32" height="32" viewBox="0 0 32 32" fill="none" xmlns="http://www.w3.org/2000/svg">
<path d="M31.0529 5.46494C32.3024 4.21552 32.3024 2.18647 31.0529 0.937061C29.8035 -0.312354 27.7745 -0.312354 26.5251 0.937061L16 11.4721L5.46494 0.947056C4.21552 -0.302358 2.18647 -0.302358 0.937061 0.947056C-0.312354 2.19647 -0.312354 4.22552 0.937061 5.47493L11.4721 16L0.947056 26.5351C-0.302358 27.7845 -0.302358 29.8135 0.947056 31.0629C2.19647 32.3124 4.22552 32.3124 5.47493 31.0629L16 20.5279L26.5351 31.0529C27.7845 32.3024 29.8135 32.3024 31.0629 31.0529C32.3124 29.8035 32.3124 27.7745 31.0629 26.5251L20.5279 16L31.0529 5.46494Z" fill="black"/>
</svg>
