<svg width="62" height="64" viewBox="0 0 62 64" fill="none" xmlns="http://www.w3.org/2000/svg">
<path d="M7.65763 23.5786L10.8524 41.8713L14.0472 23.5786H21.2097L15.3354 49.0854H6.31785L0.495117 23.5786H7.65763ZM61.5052 43.881V49.0854H44.5007V43.881L53.5182 28.783H45.119V23.5786H61.1445V28.783L52.0239 43.881H61.5052Z" fill="white"/>
<path d="M41.3973 25.4514C38.9592 19.7563 34.9447 25.8377 31.8545 25.9412C28.7649 25.8377 24.7499 19.7563 22.3122 25.4514C19.8919 31.1046 21.7185 48.6819 31.6153 49.2308V49.2448C31.6961 49.2448 31.7748 49.2398 31.8545 49.2381C31.9343 49.2398 32.013 49.2448 32.0939 49.2448V49.2308C41.991 48.6819 43.8176 31.1046 41.3973 25.4514Z" fill="white"/>
<path d="M28.5198 34.1116C29.3205 33.1659 30.9238 32.9076 31.1651 33.5957C31.405 34.2826 30.6507 36.159 31.0046 37.4637C31.5224 39.3739 32.899 38.82 33.3294 37.377C33.6315 36.3645 32.3675 34.2826 33.089 33.5957C33.8106 32.9076 34.4519 32.7355 35.4937 33.5091C36.5359 34.2826 39.9035 39.525 34.5317 41.5026C29.9761 43.1786 23.0207 40.5954 28.5198 34.1116Z" fill="#FB8500"/>
<path d="M7.28213 51.2397H9.93334V64H7.32026V62.9319C7.14223 63.6439 6.62726 64 5.77531 64H5.31754C3.82981 64 3.08594 63.2943 3.08594 61.8828V56.6567C3.08594 55.2579 3.82981 54.5586 5.31754 54.5586H5.77531C6.58911 54.5586 7.09139 54.8701 7.28213 55.4932V51.2397ZM6.27123 61.9973H6.70989C7.09137 61.9973 7.28213 61.7938 7.28213 61.3869V57.1716C7.28213 56.7647 7.09137 56.5613 6.70989 56.5613H6.27123C6.08049 56.5613 5.94696 56.5994 5.87067 56.6757C5.79441 56.7393 5.75628 56.8601 5.75628 57.0381V61.5204C5.75628 61.8383 5.9279 61.9973 6.27123 61.9973ZM13.7862 54.5586H16.056C16.8952 54.5586 17.4929 54.7429 17.8489 55.1117C18.2177 55.4677 18.402 55.9891 18.402 56.6757V61.8828C18.402 62.5695 18.2177 63.0972 17.8489 63.4659C17.4929 63.8219 16.8952 64 16.056 64H13.7862C12.947 64 12.343 63.8219 11.9742 63.4659C11.6182 63.0972 11.4402 62.5695 11.4402 61.8828V56.6757C11.4402 55.9891 11.6182 55.4677 11.9742 55.1117C12.343 54.7429 12.947 54.5586 13.7862 54.5586ZM15.7889 61.6158V56.9428C15.7889 56.6249 15.6173 56.4659 15.274 56.4659H14.5682C14.2249 56.4659 14.0532 56.6249 14.0532 56.9428V61.6158C14.0532 61.9337 14.2249 62.0926 14.5682 62.0926H15.274C15.6173 62.0926 15.7889 61.9337 15.7889 61.6158ZM29.9415 57.9537H27.3476V57.0381C27.3476 56.7202 27.1759 56.5613 26.8326 56.5613H26.3366C25.9933 56.5613 25.8217 56.7202 25.8217 57.0381V61.5204C25.8217 61.8383 25.9933 61.9973 26.3366 61.9973H26.8326C27.1759 61.9973 27.3476 61.8383 27.3476 61.5204V60.6049H29.9415V61.8828C29.9415 63.2943 29.1341 64 27.5192 64H25.5737C23.9588 64 23.1514 63.2943 23.1514 61.8828V56.6757C23.1514 55.2643 23.9588 54.5586 25.5737 54.5586H27.5192C29.1341 54.5586 29.9415 55.2643 29.9415 56.6757V57.9537ZM33.8516 64H31.2004V51.2397H33.8516V64ZM35.3966 53.2997V51.2397H38.1623V53.2997H35.3966ZM38.105 64H35.4538V54.5586H38.105V64ZM48.0424 54.5586H48.5002C49.9879 54.5586 50.7318 55.2643 50.7318 56.6757V64H48.0805V57.0381C48.0805 56.7202 47.9089 56.5613 47.5655 56.5613H47.1078C46.739 56.5613 46.5546 56.7647 46.5546 57.1716V64H43.8843V57.0381C43.8843 56.7202 43.7127 56.5613 43.3694 56.5613H42.9116C42.5428 56.5613 42.3585 56.7647 42.3585 57.1716V64H39.7072V54.5586H42.3203V55.6267C42.4983 54.9146 43.007 54.5586 43.8462 54.5586H44.3231C45.3657 54.5586 46.046 54.9146 46.3639 55.6267C46.4529 55.2961 46.6436 55.0354 46.9361 54.8447C47.2413 54.6539 47.6101 54.5586 48.0424 54.5586ZM56.3013 54.5586H58.9143V64H56.2631V63.0654C56.0724 63.6884 55.5701 64 54.7563 64H54.2985C52.8108 64 52.0669 63.2943 52.0669 61.8828V56.6757C52.0669 55.2643 52.8108 54.5586 54.2985 54.5586H54.7563C55.6082 54.5586 56.1232 54.9146 56.3013 55.6267V54.5586ZM55.2522 61.9973H55.6909C56.0724 61.9973 56.2631 61.7938 56.2631 61.3869V57.1716C56.2631 56.7647 56.0724 56.5613 55.6909 56.5613H55.2522C54.9089 56.5613 54.7372 56.7202 54.7372 57.0381V61.5204C54.7372 61.8383 54.9089 61.9973 55.2522 61.9973Z" fill="white"/>
<path d="M8.47185 12.5985C8.16842 12.4241 7.80814 12.3773 7.47021 12.4683C7.13228 12.5594 6.84435 12.7809 6.66967 13.0842C6.49497 13.3872 6.44762 13.7472 6.53806 14.0851C6.6285 14.423 6.84932 14.7112 7.15204 14.8864L17.8914 21.0868C18.1948 21.2612 18.5551 21.3081 18.893 21.217C19.231 21.1259 19.5189 20.9044 19.6936 20.6011C19.8683 20.2981 19.9156 19.9381 19.8252 19.6002C19.7347 19.2623 19.5139 18.9742 19.2112 18.7989L8.47185 12.5985Z" fill="white"/>
<path d="M56.1264 12.3373C55.7884 12.2464 55.4282 12.2934 55.1248 12.468L44.3888 18.6684C44.2385 18.7552 44.1067 18.8707 44.0011 19.0085C43.8955 19.1462 43.8181 19.3034 43.7733 19.4711C43.7284 19.6388 43.7172 19.8137 43.74 19.9858C43.7629 20.1579 43.8194 20.3237 43.9065 20.4739C44.0817 20.7766 44.3699 20.9974 44.7078 21.0879C45.0456 21.1783 45.4056 21.131 45.7086 20.9563L56.4446 14.7559C56.7479 14.5812 56.9695 14.2932 57.0605 13.9553C57.1516 13.6174 57.1048 13.2571 56.9304 12.9537C56.8435 12.8031 56.7278 12.6711 56.5899 12.5653C56.4519 12.4596 56.2944 12.3821 56.1264 12.3373Z" fill="white"/>
<path d="M31.2778 0C30.9278 0.000145458 30.5922 0.139248 30.3447 0.386728C30.0972 0.634209 29.9582 0.969819 29.958 1.31981V13.7173C29.9582 14.0673 30.0972 14.4029 30.3447 14.6504C30.5922 14.8979 30.9278 15.037 31.2778 15.0371C31.6278 15.037 31.9634 14.8979 32.2109 14.6504C32.4584 14.4029 32.5975 14.0673 32.5976 13.7173V1.31981C32.5975 0.969819 32.4584 0.634209 32.2109 0.386728C31.9634 0.139248 31.6278 0.000145458 31.2778 0Z" fill="white"/>
<path d="M18.3982 3.58098C18.0602 3.49006 17.7 3.53705 17.3966 3.71162C17.2463 3.79839 17.1146 3.91396 17.0089 4.0517C16.9033 4.18944 16.8259 4.34666 16.7811 4.51436C16.7363 4.68206 16.725 4.85694 16.7478 5.02901C16.7707 5.20108 16.8272 5.36696 16.9143 5.51714L23.1113 16.2532C23.1981 16.4035 23.3137 16.5353 23.4514 16.6409C23.5892 16.7465 23.7464 16.8239 23.9141 16.8687C24.0818 16.9135 24.2567 16.9248 24.4287 16.902C24.6008 16.8791 24.7667 16.8226 24.9169 16.7355C25.2196 16.5603 25.4404 16.2721 25.5308 15.9342C25.6213 15.5963 25.5739 15.2364 25.3992 14.9333L19.2022 4.19399C19.115 4.044 18.9991 3.91266 18.8612 3.80748C18.7232 3.7023 18.5659 3.62533 18.3982 3.58098Z" fill="white"/>
<path d="M45.8798 2.98132C45.5763 2.80689 45.216 2.76008 44.8781 2.85116C44.5402 2.94224 44.2523 3.16375 44.0776 3.46703L37.8772 14.2031C37.7901 14.3532 37.7336 14.5191 37.7107 14.6912C37.6879 14.8633 37.6992 15.0381 37.744 15.2058C37.7888 15.3735 37.8662 15.5308 37.9718 15.6685C38.0774 15.8062 38.2092 15.9218 38.3595 16.0086C38.5099 16.0955 38.676 16.1518 38.8482 16.1744C39.0204 16.1971 39.1953 16.1855 39.3631 16.1404C39.5308 16.0952 39.6879 16.0175 39.8256 15.9115C39.9632 15.8056 40.0785 15.6735 40.165 15.5229L46.3621 4.78684C46.4491 4.63666 46.5057 4.47079 46.5286 4.29872C46.5514 4.12665 46.5401 3.95176 46.4953 3.78406C46.4505 3.61636 46.3731 3.45914 46.2675 3.3214C46.1618 3.18365 46.0301 3.06809 45.8798 2.98132Z" fill="white"/>
</svg>
