<svg width="62" height="64" viewBox="0 0 62 64" fill="none" xmlns="http://www.w3.org/2000/svg">
<path d="M7.16251 23.5786L10.3573 41.8713L13.5521 23.5786H20.7146L14.8403 49.0853H5.82274L0 23.5786H7.16251ZM61.0101 43.8809V49.0853H44.0056V43.8809L53.0231 28.783H44.6239V23.5786H60.6494V28.783L51.5288 43.8809H61.0101Z" fill="black"/>
<path d="M40.9022 25.4514C38.4641 19.7563 34.4496 25.8377 31.3594 25.9411C28.2697 25.8377 24.2548 19.7563 21.8171 25.4514C19.3968 31.1046 21.2233 48.6819 31.1202 49.2308V49.2448C31.201 49.2448 31.2797 49.2398 31.3594 49.2381C31.4392 49.2398 31.5179 49.2448 31.5988 49.2448V49.2308C41.4959 48.6819 43.3225 31.1046 40.9022 25.4514Z" fill="black"/>
<path d="M28.0247 34.1116C28.8254 33.1659 30.4287 32.9076 30.67 33.5957C30.9098 34.2826 30.1556 36.159 30.5095 37.4637C31.0273 39.3739 32.4039 38.82 32.8343 37.377C33.1363 36.3645 31.8723 34.2826 32.5939 33.5957C33.3155 32.9076 33.9568 32.7355 34.9986 33.5091C36.0408 34.2826 39.4084 39.525 34.0366 41.5026C29.481 43.1786 22.5255 40.5954 28.0247 34.1116Z" fill="#FB8500"/>
<path d="M6.78701 51.2398H9.43822V64H6.82514V62.9319C6.64711 63.644 6.13214 64 5.28019 64H4.82242C3.33469 64 2.59082 63.2943 2.59082 61.8828V56.6567C2.59082 55.258 3.33469 54.5586 4.82242 54.5586H5.28019C6.094 54.5586 6.59627 54.8701 6.78701 55.4932V51.2398ZM5.77611 61.9973H6.21477C6.59625 61.9973 6.78701 61.7938 6.78701 61.3869V57.1717C6.78701 56.7648 6.59625 56.5613 6.21477 56.5613H5.77611C5.58537 56.5613 5.45184 56.5995 5.37555 56.6757C5.29929 56.7393 5.26116 56.8601 5.26116 57.0381V61.5204C5.26116 61.8383 5.43279 61.9973 5.77611 61.9973ZM13.2911 54.5586H15.5608C16.4001 54.5586 16.9977 54.743 17.3538 55.1117C17.7225 55.4678 17.9069 55.9891 17.9069 56.6757V61.8828C17.9069 62.5695 17.7225 63.0972 17.3538 63.4659C16.9977 63.822 16.4001 64 15.5608 64H13.2911C12.4518 64 11.8479 63.822 11.4791 63.4659C11.1231 63.0972 10.945 62.5695 10.945 61.8828V56.6757C10.945 55.9891 11.1231 55.4678 11.4791 55.1117C11.8479 54.743 12.4518 54.5586 13.2911 54.5586ZM15.2938 61.6158V56.9428C15.2938 56.6249 15.1222 56.4659 14.7789 56.4659H14.0731C13.7298 56.4659 13.5581 56.6249 13.5581 56.9428V61.6158C13.5581 61.9337 13.7298 62.0926 14.0731 62.0926H14.7789C15.1222 62.0926 15.2938 61.9337 15.2938 61.6158ZM29.4464 57.9537H26.8524V57.0381C26.8524 56.7203 26.6808 56.5613 26.3374 56.5613H25.8415C25.4982 56.5613 25.3265 56.7203 25.3265 57.0381V61.5204C25.3265 61.8383 25.4982 61.9973 25.8415 61.9973H26.3374C26.6808 61.9973 26.8524 61.8383 26.8524 61.5204V60.6049H29.4464V61.8828C29.4464 63.2943 28.639 64 27.0241 64H25.0786C23.4637 64 22.6562 63.2943 22.6562 61.8828V56.6757C22.6562 55.2643 23.4637 54.5586 25.0786 54.5586H27.0241C28.639 54.5586 29.4464 55.2643 29.4464 56.6757V57.9537ZM33.3565 64H30.7053V51.2398H33.3565V64ZM34.9015 53.2997V51.2398H37.6672V53.2997H34.9015ZM37.6099 64H34.9587V54.5586H37.6099V64ZM47.5473 54.5586H48.005C49.4928 54.5586 50.2367 55.2643 50.2367 56.6757V64H47.5854V57.0381C47.5854 56.7203 47.4138 56.5613 47.0704 56.5613H46.6127C46.2439 56.5613 46.0595 56.7648 46.0595 57.1717V64H43.3892V57.0381C43.3892 56.7203 43.2176 56.5613 42.8742 56.5613H42.4165C42.0477 56.5613 41.8633 56.7648 41.8633 57.1717V64H39.2121V54.5586H41.8252V55.6267C42.0032 54.9146 42.5119 54.5586 43.3511 54.5586H43.8279C44.8706 54.5586 45.5509 54.9146 45.8688 55.6267C45.9577 55.2961 46.1485 55.0354 46.441 54.8447C46.7462 54.654 47.1149 54.5586 47.5473 54.5586ZM55.8061 54.5586H58.4192V64H55.768V63.0654C55.5772 63.6885 55.075 64 54.2612 64H53.8034C52.3157 64 51.5718 63.2943 51.5718 61.8828V56.6757C51.5718 55.2643 52.3157 54.5586 53.8034 54.5586H54.2612C55.1131 54.5586 55.6281 54.9146 55.8061 55.6267V54.5586ZM54.7571 61.9973H55.1958C55.5773 61.9973 55.768 61.7938 55.768 61.3869V57.1717C55.768 56.7648 55.5773 56.5613 55.1958 56.5613H54.7571C54.4138 56.5613 54.2421 56.7203 54.2421 57.0381V61.5204C54.2421 61.8383 54.4138 61.9973 54.7571 61.9973Z" fill="black"/>
<path d="M7.97673 12.5985C7.6733 12.4241 7.31302 12.3773 6.9751 12.4683C6.63717 12.5594 6.34923 12.7809 6.17455 13.0842C5.99985 13.3872 5.95251 13.7472 6.04294 14.0851C6.13338 14.423 6.35421 14.7112 6.65692 14.8864L17.3963 21.0868C17.6997 21.2612 18.06 21.3081 18.3979 21.217C18.7358 21.1259 19.0238 20.9044 19.1985 20.6011C19.3732 20.2981 19.4205 19.9381 19.33 19.6002C19.2396 19.2623 19.0188 18.9742 18.7161 18.7989L7.97673 12.5985Z" fill="black"/>
<path d="M55.6313 12.3373C55.2933 12.2464 54.9331 12.2934 54.6297 12.468L43.8937 18.6684C43.7434 18.7552 43.6116 18.8707 43.506 19.0085C43.4004 19.1462 43.3229 19.3034 43.2781 19.4711C43.2333 19.6388 43.222 19.8137 43.2449 19.9858C43.2678 20.1579 43.3243 20.3237 43.4113 20.4739C43.5866 20.7766 43.8748 20.9974 44.2126 21.0879C44.5505 21.1783 44.9105 21.131 45.2135 20.9563L55.9495 14.7559C56.2528 14.5812 56.4743 14.2932 56.5654 13.9553C56.6565 13.6174 56.6097 13.2571 56.4352 12.9537C56.3484 12.8031 56.2327 12.6711 56.0947 12.5653C55.9568 12.4596 55.7993 12.3821 55.6313 12.3373Z" fill="black"/>
<path d="M30.7832 0C30.4332 0.000145458 30.0976 0.139248 29.8501 0.386728C29.6026 0.634209 29.4635 0.969819 29.4634 1.31981V13.7173C29.4635 14.0673 29.6026 14.4029 29.8501 14.6504C30.0976 14.8979 30.4332 15.037 30.7832 15.0371C31.1332 15.037 31.4688 14.8979 31.7163 14.6504C31.9638 14.4029 32.1029 14.0673 32.103 13.7173V1.31981C32.1029 0.969819 31.9638 0.634209 31.7163 0.386728C31.4688 0.139248 31.1332 0.000145458 30.7832 0Z" fill="black"/>
<path d="M17.9026 3.58095C17.5646 3.49003 17.2044 3.53702 16.901 3.71159C16.7507 3.79836 16.6189 3.91392 16.5133 4.05167C16.4077 4.18941 16.3303 4.34663 16.2855 4.51433C16.2407 4.68203 16.2294 4.85691 16.2522 5.02898C16.2751 5.20105 16.3316 5.36693 16.4187 5.51711L22.6157 16.2531C22.7025 16.4035 22.8181 16.5352 22.9558 16.6409C23.0936 16.7465 23.2508 16.8239 23.4185 16.8687C23.5862 16.9135 23.7611 16.9248 23.9331 16.9019C24.1052 16.8791 24.2711 16.8225 24.4213 16.7355C24.724 16.5603 24.9448 16.2721 25.0352 15.9342C25.1257 15.5963 25.0783 15.2363 24.9036 14.9333L18.7066 4.19396C18.6194 4.04397 18.5035 3.91263 18.3656 3.80745C18.2276 3.70227 18.0703 3.6253 17.9026 3.58095Z" fill="black"/>
<path d="M45.3846 2.98132C45.0812 2.80689 44.7209 2.76008 44.383 2.85116C44.0451 2.94224 43.7571 3.16375 43.5825 3.46703L37.382 14.2031C37.295 14.3532 37.2384 14.5191 37.2156 14.6912C37.1927 14.8633 37.2041 15.0381 37.2489 15.2058C37.2937 15.3735 37.3711 15.5308 37.4767 15.6685C37.5823 15.8062 37.7141 15.9218 37.8644 16.0086C38.0148 16.0955 38.1808 16.1518 38.353 16.1744C38.5253 16.1971 38.7002 16.1855 38.8679 16.1404C39.0357 16.0952 39.1928 16.0175 39.3304 15.9115C39.4681 15.8056 39.5834 15.6735 39.6699 15.5229L45.867 4.78684C45.954 4.63666 46.0106 4.47079 46.0334 4.29872C46.0563 4.12665 46.045 3.95176 46.0002 3.78406C45.9554 3.61636 45.878 3.45914 45.7723 3.3214C45.6667 3.18365 45.535 3.06809 45.3846 2.98132Z" fill="black"/>
</svg>
